# xmcd
#
# Track frame offsets:
#	182
#	13652
#	27072
#	42642
#	60497
#	74157
#	89390
#	103017
#	121552
#	137882
#
# Disc length: 2035 seconds
# Revision: 0
# Processed by: cddbd v1.5.2PL0 Copyright (c) Steve Scherf et al.
# Submitted via: dBpowerAMP V12.0
#
DISCID=8707f10a
DTITLE=Delbert McClinton - Classics Vol. 2 - Plain' From The Heart
DYEAR=1994
DGENRE=Blues
TTITLE0=Be Good to Yourself
TTITLE1=A Fool in Love
TTITLE2=Heartbreak Radio
TTITLE3=I've Got Dreams to Remember
TTITLE4=In The Midnight Hour
TTITLE5=I Wanna Thank You Baby
TTITLE6=Sandy Beaches
TTITLE7=Lipstick Traces
TTITLE8=I Feel so Bad
TTITLE9=Rooster Blues
EXTD=
EXTT0=
EXTT1=
EXTT2=
EXTT3=
EXTT4=
EXTT5=
EXTT6=
EXTT7=
EXTT8=
EXTT9=
PLAYORDER=
